<svg id="Layer_1" data-name="Layer 1" xmlns="http://www.w3.org/2000/svg" viewBox="0 0 411.25 189.82"><defs><style>.cls-1{fill:#fff;}</style></defs><title>auto-name</title><path class="cls-1" d="M566.21,196.5l37.1,140.16H573.87L567.39,307h-37.3l-6.48,29.64H494.17l37.1-140.16Zm-3.73,87.35-13.54-63h-.4l-13.54,63Z" transform="translate(-494.17 -149)"/><path class="cls-1" d="M639.63,294.26a62.06,62.06,0,0,0,.69,9.72,21.7,21.7,0,0,0,2.55,7.65,13.57,13.57,0,0,0,5.1,5.1,18.89,18.89,0,0,0,16.39,0,13.93,13.93,0,0,0,5-5.1,22.11,22.11,0,0,0,2.55-7.65,63.3,63.3,0,0,0,.69-9.72V196.5h28.27v97.76q0,13.35-3.73,22.08a35.19,35.19,0,0,1-10,13.84,33.86,33.86,0,0,1-14.33,6.87,77.43,77.43,0,0,1-16.68,1.77,87.57,87.57,0,0,1-16.69-1.57,33.89,33.89,0,0,1-14.33-6.38,32.81,32.81,0,0,1-10-13.64q-3.74-8.84-3.73-23V196.5h28.27Z" transform="translate(-494.17 -149)"/><path class="cls-1" d="M800.79,219.66H770.17v117H741.9v-117H711.28V196.5h89.51Z" transform="translate(-494.17 -149)"/><path class="cls-1" d="M811.49,237.23Q813,223.79,818,214.17a36.2,36.2,0,0,1,14.43-15q9.42-5.4,25.32-5.4t25.32,5.4a36.32,36.32,0,0,1,14.43,15q5,9.62,6.48,23.06a294.73,294.73,0,0,1,0,58.8,64.72,64.72,0,0,1-6.48,23A34.48,34.48,0,0,1,883,333.72q-9.42,5.1-25.32,5.1t-25.32-5.1A34.37,34.37,0,0,1,818,319a64.72,64.72,0,0,1-6.48-23,294.73,294.73,0,0,1,0-58.8ZM839,290.63a66.47,66.47,0,0,0,2.75,16.09c1.37,4.12,3.34,7.14,5.89,9s5.92,2.85,10.11,2.85,7.56-1,10.11-2.85,4.51-4.91,5.89-9a67.46,67.46,0,0,0,2.75-16.09q.67-9.92.68-24.05t-.68-23.95a68.88,68.88,0,0,0-2.75-16.1q-2.07-6.27-5.89-9.12t-10.11-2.85q-6.29,0-10.11,2.85t-5.89,9.12a67.85,67.85,0,0,0-2.75,16.1q-.69,9.83-.69,23.95T839,290.63Z" transform="translate(-494.17 -149)"/><circle class="cls-1" cx="261.62" cy="16.58" r="16.58"/></svg>