<svg id="Layer_1" data-name="Layer 1" xmlns="http://www.w3.org/2000/svg" viewBox="0 0 161.27 147.49"><defs><style>.cls-1{fill:#ec2024;}</style></defs><title>repair-car</title><path class="cls-1" d="M1037.19,601.12,1007,597l-14.79-26a22.81,22.81,0,0,0-19.54-11.38H933.2A22.62,22.62,0,0,0,912,574.44l-8,22.09-20.05,4.25A4.92,4.92,0,0,0,880,605.7v28.72a4.93,4.93,0,0,0,4.93,4.93h11.9a22.33,22.33,0,0,0,44.52,0h38.57a22.33,22.33,0,0,0,44.52,0h11.89a4.93,4.93,0,0,0,4.93-4.93V606A4.68,4.68,0,0,0,1037.19,601.12ZM919.1,649.38a11.73,11.73,0,1,1,11.72-11.73A11.75,11.75,0,0,1,919.1,649.38Zm1.19-53a1.09,1.09,0,0,1-1-1.36L925,579.37a8.43,8.43,0,0,1,8-5.61h7a1,1,0,0,1,1,.85l1.87,20.73a1,1,0,0,1-1,1Zm37-.85-1.87-20.73a1,1,0,0,1,1-1h16.14A8.86,8.86,0,0,1,980.1,578l9.69,16.82a1.06,1.06,0,0,1-.85,1.53H958.18A.8.8,0,0,1,957.33,595.51Zm45,53.87a11.73,11.73,0,1,1,11.72-11.73A11.74,11.74,0,0,1,1002.36,649.38Z" transform="translate(-880.01 -512.42)"/><path class="cls-1" d="M927.08,547.59A17.51,17.51,0,0,0,943.57,536h5.6c.17,0,.51.17.68.17l3.23,2.88a.64.64,0,0,0,1,0l4.76-4.24a.64.64,0,0,1,1,0l4.76,4.24a.64.64,0,0,0,1,0l4.75-4.24a.64.64,0,0,1,1,0l4.76,4.24a.64.64,0,0,0,1,0l3.23-2.88c.17-.17.34-.17.68-.17H985a1.3,1.3,0,0,0,.85-.34l4.08-5.1a1,1,0,0,0,0-1.36l-4.08-5.1a1.3,1.3,0,0,0-.85-.34H943.57a17.66,17.66,0,0,0-34.16,6.29A17.52,17.52,0,0,0,927.08,547.59ZM920.29,526a3.91,3.91,0,1,1-3.91,3.91A3.85,3.85,0,0,1,920.29,526Z" transform="translate(-880.01 -512.42)"/></svg>