<svg id="Layer_1" data-name="Layer 1" xmlns="http://www.w3.org/2000/svg" viewBox="0 0 133.91 133.92"><defs><style>.cls-1{fill:#ec2024;}</style></defs><title>repair</title><path class="cls-1" d="M926.55,654.12a33.23,33.23,0,0,1-12.15-2.3,5.15,5.15,0,0,1-1.77-8.44l14.24-14.23a.48.48,0,0,0,0-.66l-8-7.94a.47.47,0,0,0-.66,0L904,634.78a5.15,5.15,0,0,1-8.44-1.76,33.24,33.24,0,0,1,39.81-44.18l26.54-26.55a33.22,33.22,0,0,1,44.16-39.79,5.15,5.15,0,0,1,1.76,8.45l-14.23,14.23a.44.44,0,0,0-.13.33.44.44,0,0,0,.13.32l8,7.95a.47.47,0,0,0,.66,0l14.23-14.23a5.15,5.15,0,0,1,8.44,1.76,33.24,33.24,0,0,1-39.81,44.18L958.56,612a33.22,33.22,0,0,1-32,42.09Zm-8-44a10.7,10.7,0,0,1,7.62,3.16l7.95,7.94a10.79,10.79,0,0,1,0,15.24l-7.38,7.37a22.91,22.91,0,0,0,21.09-31.32A5.18,5.18,0,0,1,949,607l31-31a5.18,5.18,0,0,1,5.53-1.16,22.94,22.94,0,0,0,31.31-21.11l-7.37,7.37a10.77,10.77,0,0,1-15.24,0l-7.94-7.94a10.76,10.76,0,0,1,0-15.23l7.38-7.38a22.93,22.93,0,0,0-21.1,31.32,5.14,5.14,0,0,1-1.16,5.51l-31,31a5.14,5.14,0,0,1-5.52,1.15,22.94,22.94,0,0,0-31.32,21.11l7.38-7.37A10.67,10.67,0,0,1,918.59,610.1Z" transform="translate(-893.3 -520.2)"/></svg>