<svg id="Layer_1" data-name="Layer 1" xmlns="http://www.w3.org/2000/svg" viewBox="0 0 118.97 122.01"><defs><style>.cls-1{fill:red;}</style></defs><title>garage-repair</title><path class="cls-1" d="M960.34,509.56A30.61,30.61,0,1,0,991,540.16,30.6,30.6,0,0,0,960.34,509.56Zm0,51a20.44,20.44,0,1,1,20.45-20.44A20.44,20.44,0,0,1,960.34,560.6Z" transform="translate(-900.87 -479.16)"/><path class="cls-1" d="M1016.83,550.86l-9.58-7.49c.07-1,.13-2.08.13-3.21a25.22,25.22,0,0,0-.13-3.2l9.61-7.51a7.92,7.92,0,0,0,1.92-10.17L1007.6,500a7.92,7.92,0,0,0-9.57-3.51h-.15l-11.32,4.55a46.11,46.11,0,0,0-5.52-3.21L979.31,486a7.8,7.8,0,0,0-7.78-6.8H949.17a7.79,7.79,0,0,0-7.78,6.71l-1.73,12.06a46.23,46.23,0,0,0-5.49,3.2l-11.44-4.57a7.8,7.8,0,0,0-9.67,3.41L902,519.29a7.9,7.9,0,0,0,1.92,10.17l9.58,7.5a25.49,25.49,0,0,0-.14,3.2,27.6,27.6,0,0,0,.13,3.21l-9.6,7.51a7.89,7.89,0,0,0-2,10V561L913,580.24a7.93,7.93,0,0,0,9.61,3.57h.15l11.33-4.55a46.48,46.48,0,0,0,5.51,3.2l1.72,12a7.83,7.83,0,0,0,7.86,6.74h22.36a7.79,7.79,0,0,0,7.78-6.71L981,582.4a48.7,48.7,0,0,0,5.5-3.21L998,583.77a7.84,7.84,0,0,0,9.69-3.46l11.13-19.43A7.9,7.9,0,0,0,1016.83,550.86Zm-17.09,22.69-12-4.83a5.1,5.1,0,0,0-4.94.65,37.66,37.66,0,0,1-8.33,4.84,5.11,5.11,0,0,0-3.1,4L969.53,591H951.17l-1.84-12.81a5.11,5.11,0,0,0-3.1-4,35.38,35.38,0,0,1-8.29-4.81,5.07,5.07,0,0,0-5-.69l-12,4.84-9.22-15.92,10.17-8A5.08,5.08,0,0,0,923.8,545a37.5,37.5,0,0,1-.32-4.85,41.47,41.47,0,0,1,.35-4.85,5.05,5.05,0,0,0-1.9-4.64l-10.17-8,9.18-15.92,12,4.83a5.07,5.07,0,0,0,4.94-.67,37.89,37.89,0,0,1,8.33-4.84,5.11,5.11,0,0,0,3.1-4l1.83-12.79h18.37l1.83,12.82a5,5,0,0,0,3.1,4,36,36,0,0,1,8.3,4.82,5.07,5.07,0,0,0,5,.69l12-4.85,9.2,15.93-10.17,8a5.1,5.1,0,0,0-1.91,4.64,37.37,37.37,0,0,1,.34,4.84,39.44,39.44,0,0,1-.36,4.86,5.08,5.08,0,0,0,1.91,4.64l10.16,8Z" transform="translate(-900.87 -479.16)"/></svg>