<svg id="Layer_1" data-name="Layer 1" xmlns="http://www.w3.org/2000/svg" viewBox="0 0 49 49"><defs><style>.cls-1,.cls-2{fill:none;}.cls-2{stroke:#000;stroke-miterlimit:10;}</style></defs><title>google-logo</title><path class="cls-1" d="M-115,370" transform="translate(-215 -257.5)"/><path class="cls-1" d="M1480,370" transform="translate(-215 -257.5)"/><path class="cls-1" d="M1530,303" transform="translate(-215 -257.5)"/><path d="M235,280.09v3.82h5.15c-.82,2.48-2,3.75-5.15,3.75a5.66,5.66,0,0,1,0-11.32,5.26,5.26,0,0,1,3.69,1.4c.83-.82.76-.89,2.73-2.8a9.62,9.62,0,0,0-6.42-2.47,9.53,9.53,0,0,0,0,19.06c7.88,0,9.79-6.86,9.16-11.44Zm17.16.19V277h-2.35v3.3h-3.37v2.36h3.37V286h2.35v-3.36h3.31v-2.36Z" transform="translate(-215 -257.5)"/><path class="cls-2" d="M215.5,282a24,24,0,1,1,24,24,24,24,0,0,1-24-24" transform="translate(-215 -257.5)"/></svg>