<svg id="Layer_1" data-name="Layer 1" xmlns="http://www.w3.org/2000/svg" viewBox="0 0 1937 333.91"><defs><style>.cls-1{fill:#d9f4ff;}.cls-2,.cls-3{fill:none;stroke:gray;}.cls-17,.cls-2,.cls-3{stroke-miterlimit:10;stroke-width:5px;}.cls-3{stroke-dasharray:30.08 50.13;}.cls-4{fill:#c6c2af;}.cls-5{fill:#4b823d;}.cls-6{fill:#6fb259;}.cls-7{fill:#3f6d32;}.cls-8{fill:#695020;}.cls-9{fill:#88c881;}.cls-10{fill:#6aa562;}.cls-11{fill:#6ba543;}.cls-12{fill:#83c451;}.cls-13{fill:#b4cb34;}.cls-14{fill:#aab72c;}.cls-15{fill:#94c85b;}.cls-16{fill:#84af4b;}.cls-17,.cls-20{fill:#666;}.cls-17{stroke:#666;}.cls-18{fill:#4d4d4d;}.cls-19{fill:#39b54a;}</style></defs><title>road</title><polyline class="cls-1" points="0 168.91 0 295.91 0 282.91 1920 282.91 1920 205.91 1920 206.36 1685.61 109.17 1465.54 227.07 1286.38 181.31 1247.89 197.94 938.15 87.64 687.87 197.94 593.88 157.77 379.44 231.15 157.45 118.55"/><line class="cls-2" x1="12" y1="331.41" x2="27" y2="331.41"/><line class="cls-3" x1="77.13" y1="331.41" x2="1896.93" y2="331.41"/><line class="cls-2" x1="1922" y1="331.41" x2="1937" y2="331.41"/><path class="cls-4" d="M1024.81,506.74c0,6.9-25.81,12.49-57.65,12.49s-57.66-5.59-57.66-12.49,25.81-12.5,57.66-12.5S1024.81,499.83,1024.81,506.74Z" transform="translate(286 -223.09)"/><path class="cls-5" d="M921.58,506.73s-13.66-3.72-8.28-16.56,17-4.14,17-4.14-11.6-9.52-2.49-17.8,11.6,9.93,11.6,9.93-4.56-21.94,15.32-25.67,25.67,24.85,25.67,24.85,2.07-21.54,11.18-22.36,0,19.46,0,19.46,11.13-17.39,27.51-5-3.49,37.26-3.49,37.26Z" transform="translate(286 -223.09)"/><path class="cls-6" d="M919.82,494.24c2.19-5.86,14.79-4.19,14.79-4.19s-6.61-14-3.94-15.67,10.67,8.67,10.67,8.67-1.08-14.33,6.63-20.33,22-.54,30,16.73c0,0,.92-1.32,2.21-2.83-1.06-4.39-7.51-27.5-25.51-24.13-17.46,3.28-16.07,20.61-15.47,24.77-.65-3.57-3.58-16.19-11.45-9-9.11,8.28,2.49,17.8,2.49,17.8s-11.6-8.69-17,4.14,8.28,16.56,8.28,16.56S917.63,500.1,919.82,494.24Z" transform="translate(286 -223.09)"/><path class="cls-6" d="M1019.07,469.47c-16.38-12.42-27.51,5-27.51,5s9.11-20.29,0-19.46c-7.91.71-10.51,17-11.06,21.32,2.07-2.36,4.93-5,6.51-3.58,2.66,2.33,1.66,9,1.66,9s11.34-12,20.34-7.34,6.57,32.35,6.57,32.35S1035.45,481.89,1019.07,469.47Z" transform="translate(286 -223.09)"/><path class="cls-4" d="M1140.33,505.77c0,6.9-14.1,12.5-31.49,12.5s-31.49-5.6-31.49-12.5,14.09-12.5,31.49-12.5S1140.33,498.87,1140.33,505.77Z" transform="translate(286 -223.09)"/><ellipse class="cls-4" cx="1131.42" cy="281.43" rx="37.35" ry="14.83"/><path class="cls-5" d="M846.16,423.52s-20.31-5.46-28.9-33.95-9.94-99.68,0-128.17,32.9-50.33,46.64-30.93,22.05,108.77,12.58,147S853.27,421.7,846.16,423.52Z" transform="translate(286 -223.09)"/><path class="cls-7" d="M839,228.13c16.76,1.78,25.35,40.35,28.91,68.22S874.22,385.68,851,393c-23.06,7.2-34.77-8-35-8.29.42,1.73.85,3.39,1.3,4.9,8.59,28.49,28.9,33.95,28.9,33.95,7.11-1.82,20.84-7.88,30.32-46.08s1.15-127.56-12.58-147C857,220.69,847.71,221.39,839,228.13Z" transform="translate(286 -223.09)"/><path class="cls-8" d="M837.05,508.09s2.59-104,1.85-107.45-10-19.46-10-19.46,11.86,14.47,13,8.48,3.33-51.4,3.33-51.4.74,45.91,3.7,45.42,15.19-18.47,15.19-18.47S850,389.17,850,398.15s1.12,109.94,1.12,109.94Z" transform="translate(286 -223.09)"/><path class="cls-4" d="M774.53,506.74c0,6.9-25.82,12.49-57.66,12.49s-57.66-5.59-57.66-12.49,25.82-12.5,57.66-12.5S774.53,499.83,774.53,506.74Z" transform="translate(286 -223.09)"/><path class="cls-5" d="M671.3,506.73S657.63,503,663,490.17,680,486,680,486s-11.59-9.52-2.48-17.8,11.59,9.93,11.59,9.93-4.55-21.94,15.32-25.67,25.67,24.85,25.67,24.85,2.07-21.54,11.18-22.36,0,19.46,0,19.46,11.14-17.39,27.52-5-3.5,37.26-3.5,37.26Z" transform="translate(286 -223.09)"/><path class="cls-6" d="M669.53,494.24c2.19-5.86,14.79-4.19,14.79-4.19s-6.6-14-3.93-15.67,10.66,8.67,10.66,8.67-1.07-14.33,6.63-20.33,22-.54,30,16.73c0,0,.92-1.32,2.21-2.83-1-4.39-7.51-27.5-25.51-24.13C687,455.77,688.36,473.1,689,477.26c-.65-3.57-3.57-16.19-11.44-9C668.4,476.51,680,486,680,486s-11.59-8.69-17,4.14,8.29,16.56,8.29,16.56S667.34,500.1,669.53,494.24Z" transform="translate(286 -223.09)"/><path class="cls-6" d="M768.79,469.47c-16.38-12.42-27.52,5-27.52,5s9.11-20.29,0-19.46c-7.9.71-10.5,17-11.06,21.32,2.08-2.36,4.93-5,6.51-3.58,2.67,2.33,1.67,9,1.67,9s11.33-12,20.33-7.34,6.57,32.35,6.57,32.35S785.17,481.89,768.79,469.47Z" transform="translate(286 -223.09)"/><path class="cls-4" d="M534.88,507.12c0,6.9-14.1,12.5-31.49,12.5s-31.49-5.6-31.49-12.5,14.1-12.5,31.49-12.5S534.88,500.21,534.88,507.12Z" transform="translate(286 -223.09)"/><path class="cls-9" d="M558.85,374.09c-4.86-17.33-20.94-25.4-35.53-25.45-5.86-15.07-25.33-23.27-41.12-17.21-18.32,7-23.28,27.49-18.63,41.87h0a30.06,30.06,0,0,0-14,12.95c-8.24,14.36,2.39,33.51,18.37,37,14.59,3.22,26.57-6.48,31.11-17.44,6.67,7.32,16.17,12.11,28.26,12.47C549.05,419,564.67,394.79,558.85,374.09Z" transform="translate(286 -223.09)"/><path class="cls-10" d="M521.41,400.42c-13.64,1.31-21.53-5.8-21.53-5.8s-9.32,10.09-28,11.5c-17.25,1.3-24.16-9.65-25.09-11.29-1.26,12.51,8.17,25.61,21.11,28.46,14.59,3.22,26.57-6.48,31.11-17.44,6.67,7.32,16.17,12.11,28.26,12.47,21.75.66,37.37-23.53,31.55-44.23-4.86-17.33-20.94-25.4-35.53-25.45C549.61,367.63,535,399.12,521.41,400.42Z" transform="translate(286 -223.09)"/><path class="cls-8" d="M494,510.12s2.63-92.29,1.88-95.47-10.15-17.74-10.15-17.74,12,13.19,13.16,7.73,3.38-46.83,3.38-46.83.75,41.83,3.76,41.38,15.42-16.83,15.42-16.83-14.29,21.83-14.29,30,1.13,97.75,1.13,97.75Z" transform="translate(286 -223.09)"/><ellipse class="cls-4" cx="653.19" cy="281.3" rx="63.04" ry="12.5"/><path class="cls-11" d="M322.56,504.39s-9.65-24.59-2.3-32.84,21.84-7.33,26.67,1.38c0,0,1.38-8.94,11.72-10.43s13.33,8.14,13.56,12c0,0,8.28-6.87,17.7-5.72s11.72,9.39,9.88,12.36c0,0,24.68.31,15.63,23.22Z" transform="translate(286 -223.09)"/><path class="cls-12" d="M327.15,477.7c8-5,18.67,2.33,18.67,2.33s4-9.2,12.82-8.77,12.84,9.11,12.84,9.11S382.11,474,390.13,479s7,10.34,7,10.34,19.54-1.63,18.27,15c9.05-22.91-15.63-23.22-15.63-23.22,1.84-3-.46-11.22-9.88-12.36s-17.7,5.72-17.7,5.72c-.23-3.89-3.22-13.51-13.56-12s-11.72,10.43-11.72,10.43c-4.83-8.71-19.31-9.62-26.67-1.38s2.3,32.84,2.3,32.84S319.15,482.7,327.15,477.7Z" transform="translate(286 -223.09)"/><ellipse class="cls-4" cx="379.35" cy="281.51" rx="31.49" ry="12.5"/><path class="cls-13" d="M85.42,443.59s-11.25,8.07-18.72-2.8c0,0-12.45,3.11-15.26-8.38,0,0-14.94-1.24-14.32-12.74,0,0-18-8.69-6.22-25.15,0,0-11.52-10.25,1.55-21.74,0,0-10-14.91,7.47-19.26,0,0,1.56-17.71,19-13.67,0,0,4.67-14.91,21.49-9.32,0,0,15.1-11.2,23.66,3.73,0,0,16.5-2.17,19.61,11.49,0,0,15.88,2.18,14.32,18,0,0,12.19,11.18,4.41,24.53,0,0,7.76,22.24-9.08,24.23a15.26,15.26,0,0,1-9.43,14.2s-1.78,11.89-12.36,10c0,0-8.1,9-14,4Z" transform="translate(286 -223.09)"/><path class="cls-14" d="M138,363.77c1.56-15.84-14.32-18-14.32-18,7.9,34.15-11.4,77.85-41.4,81.74s-45.15-7.82-45.15-7.82c-.62,11.5,14.32,12.74,14.32,12.74,2.81,11.49,15.26,8.38,15.26,8.38,7.47,10.87,18.72,2.8,18.72,2.8l12.1-2.8c5.91,5,14-4,14-4,10.58,1.87,12.36-10,12.36-10a15.26,15.26,0,0,0,9.43-14.2c16.84-2,9.08-24.23,9.08-24.23C150.18,375,138,363.77,138,363.77Z" transform="translate(286 -223.09)"/><path class="cls-8" d="M66.7,414.93s17.43,1.81,18.68,10.84-1.87,81.84-1.87,81.84h18.68s-8.1-81.84-5.29-87.78,11.83-9.28,11.83-9.28-10.28-.26-13.7,2.84-7.79,3.87-12.46,3.09S73.24,414.42,66.7,414.93Z" transform="translate(286 -223.09)"/><path class="cls-4" d="M258.66,504.6c0,6.9-14.09,12.5-31.49,12.5s-31.49-5.6-31.49-12.5,14.1-12.5,31.49-12.5S258.66,497.7,258.66,504.6Z" transform="translate(286 -223.09)"/><path class="cls-15" d="M217.14,423s-37-12.45-45.63-39.18.57-64.73,34.61-77.79,77.31,9.5,79.61,46.32S264.89,414.11,234.64,423Z" transform="translate(286 -223.09)"/><path class="cls-16" d="M285.73,352.38c-1.06-16.92-10.77-30.83-24.26-39.66h0c17.2,27.13,2.8,77.88-32.41,86.88-34.66,8.86-53.44-7.4-54-7.91C187.44,413,217.14,423,217.14,423h17.5C264.89,414.11,288,389.2,285.73,352.38Z" transform="translate(286 -223.09)"/><path class="cls-8" d="M220.12,507.61s2.63-92.3,1.87-95.48-10.14-17.73-10.14-17.73,12,13.18,13.15,7.73,3.39-46.83,3.39-46.83.75,41.83,3.76,41.37,15.41-16.82,15.41-16.82-14.29,21.83-14.29,30,1.13,97.75,1.13,97.75Z" transform="translate(286 -223.09)"/><path class="cls-9" d="M1164.3,372.74c-4.87-17.33-20.94-25.4-35.53-25.45-5.87-15.07-25.34-23.26-41.13-17.2-18.31,7-23.28,27.48-18.62,41.86h0a30,30,0,0,0-14,13c-8.24,14.36,2.39,33.51,18.36,37,14.6,3.22,26.58-6.48,31.11-17.43,6.67,7.31,16.17,12.1,28.27,12.46C1154.5,417.63,1170.11,393.44,1164.3,372.74Z" transform="translate(286 -223.09)"/><path class="cls-10" d="M1126.85,399.07c-13.63,1.31-21.52-5.8-21.52-5.8s-9.33,10.09-28,11.5c-17.26,1.3-24.16-9.65-25.09-11.29-1.26,12.51,8.16,25.61,21.1,28.46,14.6,3.22,26.58-6.48,31.11-17.43,6.67,7.31,16.17,12.1,28.27,12.46,21.75.66,37.36-23.53,31.55-44.23-4.87-17.33-20.94-25.4-35.53-25.45C1155.06,366.28,1140.48,397.77,1126.85,399.07Z" transform="translate(286 -223.09)"/><path class="cls-8" d="M1099.41,508.78s2.63-92.3,1.88-95.48-10.15-17.73-10.15-17.73,12,13.18,13.15,7.73,3.39-46.84,3.39-46.84.75,41.84,3.76,41.38S1126.85,381,1126.85,381s-14.29,21.83-14.29,30,1.13,97.75,1.13,97.75Z" transform="translate(286 -223.09)"/><rect class="cls-17" x="1602.5" y="170.41" width="34" height="70"/><circle class="cls-18" cx="1619.24" cy="203.88" r="7.39"/><circle class="cls-18" cx="1619.09" cy="225.75" r="7.39"/><circle class="cls-19" cx="1619.09" cy="183.31" r="7.39"/><path class="cls-4" d="M1365.49,508c0,6.9-14.1,12.5-31.49,12.5s-31.49-5.6-31.49-12.5,14.1-12.5,31.49-12.5S1365.49,501.1,1365.49,508Z" transform="translate(286 -223.09)"/><rect class="cls-20" x="1616" y="237.91" width="6" height="50"/></svg>