<svg id="Layer_1" data-name="Layer 1" xmlns="http://www.w3.org/2000/svg" viewBox="0 0 104 208"><defs><style>.cls-1{fill:#fff;}.cls-2{fill:red;}</style></defs><title>slider-left</title><path class="cls-1" d="M173.7,118.6a104,104,0,0,1,0,208" transform="translate(-173.7 -118.6)"/><path class="cls-2" d="M195.13,229.29l16,17a1,1,0,0,0,1.43.05,1,1,0,0,0,0-1.42l-14.4-15.31h45.68a1,1,0,0,0,0-2H198.2l14.4-15.32a1,1,0,0,0,0-1.42,1,1,0,0,0-1.43,0l-16,17a1.07,1.07,0,0,0,0,1.37Z" transform="translate(-173.7 -118.6)"/></svg>