<svg id="Layer_1" data-name="Layer 1" xmlns="http://www.w3.org/2000/svg" viewBox="0 0 103.8 207.6"><defs><style>.cls-1{fill:#fff;}.cls-2{fill:red;}</style></defs><title>slider-right</title><path class="cls-1" d="M719.8,334.6a103.8,103.8,0,1,1,0-207.6" transform="translate(-616 -127)"/><path class="cls-2" d="M700.86,235.08l-16.71-17.76a1.09,1.09,0,0,0-1.49,0,1.11,1.11,0,0,0,0,1.49l15,16H649.93a1,1,0,0,0,0,2.09h47.73l-15,16a1.11,1.11,0,0,0,0,1.49,1.08,1.08,0,0,0,1.49-.05l16.71-17.76a1.13,1.13,0,0,0,0-1.44Z" transform="translate(-616 -127)"/></svg>