<svg id="Layer_1" data-name="Layer 1" xmlns="http://www.w3.org/2000/svg" viewBox="0 0 49 49"><defs><style>.cls-1,.cls-2{fill:none;}.cls-2{stroke:#000;stroke-miterlimit:10;}</style></defs><title>fb-logo</title><path class="cls-1" d="M-115,370" transform="translate(-234 -324.5)"/><path class="cls-1" d="M1480,370" transform="translate(-234 -324.5)"/><path d="M263,341.21s-2.46-.44-3,.26c-.85.43-.58,3.16-.58,3.16h3.08v2.77h-3.08v12.27h-3.65V347.4H253.5v-2.77h2.31c-.21,0,.11-2.71.14-3a3.65,3.65,0,0,1,2.42-3,8.64,8.64,0,0,1,5.13.16C263.35,339.62,263.19,340.42,263,341.21Z" transform="translate(-234 -324.5)"/><circle class="cls-2" cx="24.5" cy="24.5" r="24"/></svg>