<svg id="Layer_1" data-name="Layer 1" xmlns="http://www.w3.org/2000/svg" viewBox="0 0 49 49"><defs><style>.cls-1,.cls-2{fill:none;}.cls-2{stroke:#000;stroke-miterlimit:10;}.cls-3{fill:#fff;}</style></defs><title>twitter-logo</title><path class="cls-1" d="M-115,370" transform="translate(-506 -352.5)"/><path class="cls-1" d="M1480,370" transform="translate(-506 -352.5)"/><path class="cls-1" d="M1530,303" transform="translate(-506 -352.5)"/><circle class="cls-2" cx="24.5" cy="24.5" r="24"/><path d="M541.88,376.17v.19a11.45,11.45,0,0,1-1.45,4.88c-1.08,1.74-4,6.35-10.29,6.35-4.27,0-7.44-1.06-9.71-3.24a11.79,11.79,0,0,1-3.43-7.17,24,24,0,0,1,.08-3.55,10.48,10.48,0,0,0,2.15,1.79,10.79,10.79,0,0,0,4.83,1.33h.24c1.25-.05,3.57-.39,4.88-2.18a11.94,11.94,0,0,0,1.37-3,11,11,0,0,1,1.12-2.56c.94-1.3,2.07-2.51,4.15-2.51a4.88,4.88,0,0,1,.53,0,5.85,5.85,0,0,1,4.18,2l.07.07a9.18,9.18,0,0,1,1.4,3.6l0,.17,3.31,1.64Z" transform="translate(-506 -352.5)"/><path class="cls-3" d="M537.87,372.81a1.43,1.43,0,0,1-1.42-1.43,1.43,1.43,0,1,1,1.42,1.43Z" transform="translate(-506 -352.5)"/></svg>